# xmcd
#
# Track frame offsets:
#	150
#	14102
#	29795
#	43301
#	58743
#	71152
#	89478
#	108796
#	120532
#	137539
#	152517
#	170173
#	185392
#	202406
#	219518
#	237863
# Disc length: 3333 seconds
# Revision: 1
# Processed by: cddbd v1.5.2PL0 Copyright (c) Steve Scherf et al.
#
# Submitted via: libkcddb 0.31
#
DISCID=f50d0310
DTITLE=Bumba meu Boi de Axixá - Bumba meu Boi de Axixá
DYEAR=2008
DGENRE=
TTITLE0=Donato Alves - É pra Guarnicê
TTITLE1=Pestana - Donato - Arrastão do Povo
TTITLE2=Luís Lima - Noite de Luar
TTITLE3=Antônio Leite - Chegamos Agora
TTITLE4=Cleosvaldo - Linda Índia
TTITLE5=Geovane - Sonho Realizado
TTITLE6=Donato Alves - Noite Linda
TTITLE7=Pestana - Terra das Palmeiras
TTITLE8=Zé Antônio - Brincadeira Preferida
TTITLE9=Antônio Leite - Fazendo a Festa
TTITLE10=Donato Alves - Minha Terra, Minha Mãe
TTITLE11=Luís Lima - Te Amo Tanto
TTITLE12=Pestana - Deus te Ajude
TTITLE13=Donato Alves - Olha Amor
TTITLE14=Donato Alves - Nonato Silva - Bela Mocidade
TTITLE15=Donato Alves - Feliciano Veras - Despedida
EXTD=Glória e Tradição do Folclore Maranhense
EXTT0=
EXTT1=
EXTT2=
EXTT3=
EXTT4=
EXTT5=
EXTT6=
EXTT7=
EXTT8=
EXTT9=
EXTT10=
EXTT11=
EXTT12=
EXTT13=
EXTT14=
EXTT15=
PLAYORDER=
